<?xml version="1.0" encoding="UTF-8"?>
<svg id="Layer_1" xmlns="http://www.w3.org/2000/svg" version="1.1" viewBox="0 0 230 60">
  <!-- Generator: Adobe Illustrator 29.3.0, SVG Export Plug-In . SVG Version: 2.1.0 Build 146)  -->
  <g>
    <path d="M9.45141,25.45406c.04606,0,.09205-.00361.13755-.01083l12.80745-2.02923c.29159-.0462.54045-.23581.66238-.50468l5.35584-11.80945c.20032-.44175.00461-.96225-.43714-1.16258-.15651-.07097-.3304-.09447-.50013-.06758l-12.80745,2.02923c-.29159.0462-.54045.23581-.66238.50468l-5.35585,11.80945c-.20032.44176-.0046.96227.43716,1.16259.11389.05165.23751.07838.36256.0784ZM15.86564,20.79295l3.22622,1.36621-6.33726,1.00409,3.11104-2.3703ZM16.41037,18.16975l-.61971-4.66995,8.52106-1.3501-7.90134,6.02005ZM14.80116,19.39582l-3.11103,2.3703,2.65013-5.84345.46091,3.47315ZM21.81285,21.40391l-4.33802-1.83702,7.90136-6.02008-3.56335,7.85709Z"/>
    <path d="M10.04363,7.33725c.94243-.71895,1.9341-1.37095,2.96773-1.95119l-.85809-1.53265c-1.10554.6205-2.1662,1.31778-3.17416,2.0867-2.26884,1.72857-4.24732,3.80149-5.72153,5.99459l1.45771.97988c1.36819-2.03529,3.21072-3.96391,5.32835-5.57734Z"/>
    <path d="M55.47501,32.34695c-.52505-3.85595-2.45104-7.92819-5.42328-11.4666-3.84354-4.57576-8.8116-7.52431-13.35905-7.94829-.25563-.61678-.58982-1.19797-.99429-1.72916l-3.19351-4.19152c-1.89522-2.48749-5.1551-3.66223-9.17953-3.30833-3.87654.34108-8.03578,2.07121-11.71151,4.8718-3.67579,2.80054-6.44787,6.35138-7.8056,9.99838-1.40952,3.78594-1.14203,7.24083.75319,9.72832l1.8358,2.40946c-.36536.5004-.66889,1.04312-.904,1.61636l-1.99519,4.87716c-1.18411,2.8944-.54499,6.30024,1.79954,9.59013,2.25844,3.16912,5.85769,5.87806,10.1347,7.62774,3.12104,1.27679,6.34221,1.93634,9.34479,1.93623,1.08264.00309,2.16348-.08847,3.23018-.27365,3.97811-.70334,6.82111-2.6847,8.00517-5.57911l1.875-4.58341c.33379.12956.66814.24794,1.00305.35513,1.32519.43851,2.71014.66975,4.10591.68554,2.16442,0,4.07514-.64009,5.57568-1.90053l4.03488-3.38922c2.39455-2.01133,3.41313-5.32352,2.86808-9.32646h0ZM30.45371,38.4893l2.68899-2.2587c1.18223,1.32586,2.49658,2.52771,3.92266,3.58689l-2.65008,2.226c-1.44732-1.0353-2.7759-2.22725-3.96158-3.55419ZM29.32447,37.14387c-.3663-.46799-.7143-.94631-1.04398-1.43497-.0382-.06621-.07839-.13158-.12117-.19572l-.00765.00511c-.64921-.97771-1.22456-2.0025-1.72126-3.06584.75324-.46496,1.49176-.97257,2.21558-1.52284.18873-.14379.37485-.28969.55835-.4377.78646,1.55508,1.72745,3.02705,2.80875,4.39364l-2.68862,2.25832ZM26.86382,38.13008c-.36729.89775-1.39273,1.32786-2.29055.96074l-.00022-.00011-4.0643-1.66266,1.08655-2.656c1.13595-.39764,2.24034-.88029,3.30379-1.44384.54658,1.15668,1.18123,2.26965,1.89833,3.32909.2372.45739.26148.99589.0664,1.47277h0ZM24.86273,41.66285c.37517.8946-.0459,1.92395-.9405,2.29912-.42961.18017-.9132.18229-1.34438.0059l-4.0643-1.66269,1.33013-3.25141,4.06431,1.66263c.43188.1753.77567.5161.95474.94643h0ZM12.36366,31.67175c.09393,0,.18869-.00142.28365-.00323l1.81973,2.38837c-2.31532-.21254-4.16059-1.11322-5.31489-2.62829l-.15227-.19986c1.09531.30287,2.22742.45197,3.3638.44301ZM16.78053,34.05172c-.03462.00304-.06872.00517-.1032.00796l-1.95481-2.56568c1.26396-.18923,2.50693-.4989,3.71194-.92478l2.07014,2.71708c-1.20959.39069-2.45843.64736-3.72407.76541ZM24.74547,27.25924l2.12829,2.7934c-1.44781,1.03464-3.00543,1.90626-4.64455,2.59902l-2.09748-2.75296c1.62364-.72069,3.16955-1.60509,4.61373-2.63946h0ZM28.27089,28.98816l-2.12829-2.7934c1.38059-1.11785,2.64358-2.37357,3.76939-3.74768l2.0975,2.75293c-1.10299,1.39646-2.35678,2.66688-3.7386,3.78815h0ZM33.07913,23.70572l-2.07016-2.71705c.73043-1.04876,1.35892-2.16495,1.87686-3.33335l1.95478,2.56566c-.01185.0325-.02296.06482-.03508.0974-.44974,1.18891-1.02867,2.32483-1.7264,3.38734h0ZM35.42465,18.08932l-1.81953-2.38815c.36028-1.1775.54363-2.40199.54406-3.63337l.15209.19962c1.15434,1.51502,1.53305,3.53324,1.12338,5.82189h0ZM5.45432,19.1861c1.24345-3.33986,3.80899-6.61217,7.224-9.21411,3.41506-2.60188,7.25091-4.20684,10.80099-4.51925.41741-.03672.82398-.05502,1.21971-.05489,2.82911,0,5.07791.93137,6.40874,2.678,1.51683,1.99091,1.69592,4.85014.50425,8.051-1.24345,3.33985-3.80899,6.61216-7.224,9.2141-3.41506,2.60189-7.25091,4.20684-10.80099,4.51925-3.40199.29932-6.11029-.63188-7.62742-2.62183l-.00102-.00133-.00003.00002c-1.51681-1.99089-1.69589-4.85013-.50423-8.05097h0ZM7.755,32.49308c1.674,2.19723,4.41231,3.37019,7.80217,3.37019.44786,0,.90696-.02062,1.3773-.06186.84417-.07616,1.68199-.21126,2.50731-.40431l-2.55396,6.24302-1.6257-.66507-.66512,1.6257,1.62575.66508-.66505,1.62569,1.6257.66512.66507-1.62573,1.62571.66505-.66508,1.62569,1.6257.66512.6651-1.62573.81287.33253c1.79573.7346,3.84697-.12563,4.58157-1.92136.35276-.86232.34852-1.82945-.01178-2.68864-.02905-.06926-.06083-.13681-.09385-.20353.92722-.32032,1.67764-1.01476,2.06874-1.91441.02511.03015.0495.06061.07477.0907,2.26966,2.70204,4.95142,4.85596,7.74322,6.25039-1.01101,2.1855-3.3345,3.69785-6.57878,4.27149-3.50935.62047-7.63048.06695-11.60409-1.55864-3.97372-1.62565-7.30113-4.1192-9.36939-7.02143-1.98222-2.78151-2.55198-5.58907-1.60426-7.90562.11443-.27742.24988-.54569.40518-.80247l.23088.30304ZM16.61991,49.19985l-1.32969,3.25029c-1.62561-.72385-3.16632-1.62497-4.59414-2.687l1.31042-3.20327c1.44407,1.03452,2.98987,1.91908,4.61341,2.63997h0ZM18.24624,49.86343c1.66304.62413,3.38539,1.07708,5.14032,1.35181l-1.31048,3.20341c-1.76278-.24323-3.49332-.68036-5.16015-1.30345l1.33031-3.25177ZM5.12374,37.86967l.09501-.23224c.32026,1.18898.81537,2.32379,1.46912,3.36727l-1.13675,2.77875c-.99003-2.10368-1.14853-4.15093-.42738-5.91378ZM6.72801,45.77529c-.02018-.02832-.0393-.05666-.05919-.08497l1.22127-2.98531c.80364.99375,1.70047,1.90838,2.67823,2.73139l-1.29335,3.16151c-.94975-.84481-1.80386-1.79136-2.54696-2.82263ZM23.90639,54.58359l1.29361-3.16215c.52938.03905,1.05425.06006,1.57226.06006.75269.00063,1.50477-.04309,2.25233-.13091l-1.22141,2.98568c-.03403.00624-.06752.01305-.10175.01911-1.25285.21477-2.52549.2913-3.79504.22822ZM29.93691,53.7595l1.13677-2.77878c1.19769-.28608,2.34623-.74851,3.40802-1.37213l-.09499.23219c-.7212,1.7629-2.2692,3.1121-4.4498,3.91872h0ZM35.9588,43.04087l2.61551-2.19699c1.08228.67974,2.22708,1.25441,3.41877,1.71619l-2.46975,2.07456c-.03303-.01029-.06584-.01986-.09897-.03042-1.20893-.39268-2.37109-.91693-3.46557-1.56333ZM47.44229,43.7177c-1.45843,1.22507-3.45639,1.6993-5.76192,1.39894l2.29892-1.93103c.99813.25115,2.0228.38153,3.05202.38832.20412,0,.4052-.00757.60468-.01895l-.19369.16272ZM51.47717,40.32848c-1.91656,1.60978-4.764,1.92449-8.01793.8865-3.39517-1.08318-6.78573-3.49021-9.54714-6.77764-1.32154-1.56215-2.44077-3.28474-3.33119-5.127,2.71341-2.49224,4.76293-5.40358,5.87074-8.37912.82258-2.20945,1.07296-4.30572.76301-6.1632,3.87235.61036,8.18943,3.3102,11.49215,7.24208,2.76136,3.28743,4.54696,7.0426,5.02773,10.57382.46084,3.38429-.34086,6.13471-2.25737,7.74455h0Z"/>
    <path d="M47.12812,25.82683c-1.52293-.13186-2.95657.73535-3.54676,2.14545l-1.46366-.42744-.16832-1.51491c1.89313-.42685,3.08179-2.30757,2.65493-4.20071-.42685-1.89313-2.30757-3.08178-4.20071-2.65493-1.89313.42685-3.08178,2.30757-2.65493,4.20071.27971,1.24051,1.20782,2.2331,2.42677,2.59538l.20922,1.88315-.39722.33363c-1.57865-1.12523-3.77058-.75767-4.89581.82098-1.12524,1.57865-.75767,3.77058.82098,4.89581,1.57865,1.12524,3.77058.75767,4.89582-.82098.74088-1.03942.85912-2.39909.3088-3.5508l.39722-.33364,1.81869.53113c.19231,1.65774,1.52371,2.95175,3.18625,3.09678.10388.009.20734.0135.31037.0135.82493.00076,1.6234-.291,2.25351-.82341v.00005c1.48562-1.24789,1.67834-3.46385.43044-4.94947-.59926-.71342-1.45739-1.15957-2.38559-1.24029h0ZM39.83004,23.7315c-.62398-.74283-.52764-1.85085.21519-2.47484.74283-.62398,1.85085-.52764,2.47484.21519.62398.74283.52764,1.85085-.21519,2.47484-.35673.29966-.8179.44533-1.28204.40496-.46446-.03913-.89397-.26243-1.1928-.62014ZM39.69689,31.20025c-.08422.96635-.93586,1.68145-1.90221,1.59724s-1.68145-.93587-1.59724-1.90221c.07898-.90627.83689-1.60225,1.7466-1.60387.05146,0,.10329.00225.15518.00675.9664.08402,1.6817.93556,1.59768,1.90195v.00013ZM48.57366,29.47881c-.0391.46446-.26241.89395-.62014,1.19274v.00005c-.74289.62385-1.85086.52735-2.47471-.21555-.62385-.74289-.52735-1.85086.21555-2.47471.31558-.26501.7143-.41063,1.1264-.41138.05151,0,.10324.00225.15518.00675.96644.08405,1.68177.93564,1.59772,1.90208h0s0,0,0,0Z"/>
    <path d="M51.34156,18.96996c.27697.32977.54858.66999.80722,1.01119l1.39982-1.06103c-.27628-.36451-.56633-.72784-.86206-1.07991-2.79663-3.32945-6.26492-5.85806-9.7659-7.12001l-.59565,1.6524c3.21399,1.15854,6.41613,3.50152,9.01657,6.59736Z"/>
    <path d="M40.8699,10.12959c-.6203-.13391-1.24946-.22282-1.88257-.26604l-.11514,1.75274c.54833.03761,1.09322.1148,1.63042.23098l.36729-1.71769Z"/>
    <path d="M40.79245,49.31766l-.11777.00177.02316,1.75639.12613-.00198c.56285-.00981,1.13072-.03715,1.68794-.08116l-.1383-1.75103c-.52157.04122-1.05332.06679-1.58116.07601Z"/>
    <path d="M44.07033,49.04932l.25784,1.73752c3.07585-.45644,5.9226-1.44206,8.2325-2.85034l-.91438-1.49973c-2.11093,1.28698-4.73061,2.19037-7.57596,2.61255Z"/>
  </g>
  <g>
    <path d="M81.29588,31.39614c-.91699.94336-2.82959,2.46289-6.52344,2.46289-5.31836,0-9.48438-3.51074-9.48438-9.32715,0-5.84277,4.21826-9.32715,9.48438-9.32715,3.72021,0,5.73779,1.5459,6.20898,2.04395l-1.30957,3.51074c-.34082-.44531-2.2793-1.88672-4.66357-1.88672-3.06543,0-5.42334,2.04395-5.42334,5.58105,0,3.53613,2.46289,5.55371,5.42334,5.55371,2.25293,0,3.87744-.89062,4.87305-1.91211l1.41455,3.30078Z"/>
    <path d="M91.71922,24.47914h-.18311c-.23584-.13086-.78613-.31348-1.51953-.31348-.94336,0-1.62451.52344-1.93896.94238-.31445.41992-.65479,1.25781-.65479,2.69922v5.7373h-4.19189v-12.91602h4.19189l-.02637,1.83398h.05225c.73389-1.41504,1.80811-2.07031,3.19678-2.07031.86426,0,1.30957.23633,1.30957.23633l-.23584,3.85059Z"/>
    <path d="M106.67674,20.62856l-5.76416,14.14746c-.94287,2.30566-1.99121,3.7207-4.19189,3.7207s-3.58936-.62891-3.58936-.62891l.83838-3.0918s.91699.34082,1.5459.34082c.47168,0,.91699,0,1.25781-.83887l.47119-1.12598-5.10889-12.52344h4.37549l2.93408,8.30469,2.9082-8.30469h4.32324Z"/>
    <path d="M116.47117,33.83266c-1.91211,0-3.2749-.70703-4.08691-1.91211v6.36621h-4.19189v-17.6582h3.98242l-.02637,1.65039h.05273c.94287-1.12695,2.33154-1.88672,4.29639-1.88672,3.72021,0,6.07764,2.9082,6.07764,6.70703s-2.35742,6.7334-6.104,6.7334ZM115.26609,23.69399c-1.78125,0-3.0127,1.3623-3.0127,3.35352s1.23145,3.35352,3.0127,3.35352c1.80811,0,3.03857-1.3623,3.03857-3.35352s-1.23047-3.35352-3.03857-3.35352Z"/>
    <path d="M132.55369,23.82485h-2.85645v4.63672c0,1.10059.15723,1.3623.36719,1.59863.18359.20898.44531.31445.99512.31445.65527,0,1.25781-.23633,1.25781-.23633l.20996,3.27539c-.31445.07812-1.46777.41895-2.9873.41895-1.49316,0-2.48828-.44531-3.14355-1.20508s-.91699-1.83398-.91699-3.79883v-5.00391h-1.83398v-3.16992h1.83398v-3.51074h4.21777v3.51074h2.85645v3.16992Z"/>
    <path d="M140.64744,33.83266c-4.08789,0-7.17871-2.54102-7.17871-6.70703s3.09082-6.7334,7.17871-6.7334c4.08691,0,7.15234,2.56738,7.15234,6.7334s-3.06543,6.70703-7.15234,6.70703ZM140.64744,23.69399c-1.86035,0-2.93457,1.44043-2.93457,3.35352,0,1.91211,1.07422,3.35352,2.93457,3.35352,1.83398,0,2.93359-1.44141,2.93359-3.35352,0-1.91309-1.09961-3.35352-2.93359-3.35352Z"/>
    <path d="M164.30076,15.46743l-6.6543,18.10352h-2.25391l-6.6543-18.10352h2.72461l5.08301,14.40918,5.08301-14.40918h2.67188Z"/>
    <path d="M167.1533,18.55825c-.96973,0-1.65039-.6543-1.65039-1.5459,0-.89062.68066-1.54492,1.65039-1.54492.94336,0,1.62402.6543,1.62402,1.54492,0,.8916-.68066,1.5459-1.62402,1.5459ZM168.41014,33.54457h-2.51465v-12.44434h2.51465v12.44434Z"/>
    <path d="M183.52635,27.91176h-9.58984c.13184,2.46289,1.70312,3.95605,4.00879,3.95605,2.33203,0,3.8252-1.25781,4.11328-1.44141l1.04785,1.44141c-.15723.13086-1.75488,1.96484-5.47559,1.96484-3.69434,0-6.23535-2.56738-6.23535-6.52344,0-3.92969,2.85547-6.44531,6.31445-6.44531,3.45801,0,5.89453,2.46289,5.89453,5.94727,0,.47168-.07812,1.10059-.07812,1.10059ZM181.22068,26.235c-.02637-1.38867-1.07422-3.56348-3.58984-3.56348-2.48828,0-3.58887,2.07031-3.66797,3.56348h7.25781Z"/>
    <path d="M204.03709,21.10024l-4.11328,12.44434h-2.30566l-3.27441-9.30078-3.30176,9.30078h-2.30566l-4.11328-12.44434h2.54199l2.88184,9.40527,3.27441-9.43164h2.01758l3.27441,9.43164,2.88281-9.40527h2.54102Z"/>
    <path d="M217.31541,27.91176h-9.58984c.13184,2.46289,1.70312,3.95605,4.00879,3.95605,2.33203,0,3.8252-1.25781,4.11328-1.44141l1.04785,1.44141c-.15723.13086-1.75488,1.96484-5.47559,1.96484-3.69434,0-6.23535-2.56738-6.23535-6.52344,0-3.92969,2.85547-6.44531,6.31445-6.44531,3.45801,0,5.89453,2.46289,5.89453,5.94727,0,.47168-.07812,1.10059-.07812,1.10059ZM215.00975,26.235c-.02637-1.38867-1.07422-3.56348-3.58984-3.56348-2.48828,0-3.58887,2.07031-3.66797,3.56348h7.25781Z"/>
    <path d="M226.92674,23.4059h-.10449c-.23633-.10547-.68164-.2627-1.3623-.2627-1.10059,0-1.78223.70801-2.04395,1.04785-.23535.34082-.75977,1.31055-.75977,3.14453v6.20898h-2.51465v-12.44434h2.51465l-.02637,1.91211h.0791c.60254-1.41504,1.72852-2.14844,3.06543-2.14844.83789,0,1.30957.20996,1.30957.20996l-.15723,2.33203Z"/>
  </g>
  <g>
    <path d="M70.94385,45.88603c-.20654-.14551-.42285-.26074-.64795-.34473-.2251-.08496-.4292-.15137-.6123-.19922l-.71289-.19238c-.13037-.03418-.27344-.0791-.42871-.13477-.15576-.05664-.3042-.12793-.4458-.21582-.14209-.08887-.25781-.19922-.34814-.33301s-.13525-.29492-.13525-.48145c0-.22461.06445-.4248.19336-.60059.12939-.17578.31006-.31445.54199-.41504s.50342-.15039.81445-.15039c.42529,0,.78418.0957,1.07666.28809.29248.19141.45947.46094.50098.80859h.82275c-.01123-.35449-.12061-.6709-.32764-.94922-.20654-.2793-.48633-.49902-.83838-.66016s-.75439-.24219-1.20703-.24219c-.44824,0-.85352.08203-1.21582.24512-.3623.16406-.65039.39258-.86377.68555-.21387.29395-.3208.6377-.3208,1.03125,0,.47266.16016.85547.47998,1.14844.32031.29297.75439.51758,1.30322.67578l.86426.24707c.24658.06836.47656.14844.68896.23926.21289.0918.38428.21094.51465.35742.13037.14551.19531.33594.19531.56934,0,.25586-.0752.47949-.22607.66992-.15088.19141-.35547.33984-.61377.44629-.25879.10547-.55029.15918-.87451.15918-.2793,0-.53906-.04199-.78027-.125-.24121-.08398-.43994-.21191-.59668-.38477-.15674-.17188-.24658-.39062-.26904-.65625h-.87793c.02734.38379.14551.72168.35498,1.01172.20898.29004.49707.5166.86377.67871.36719.16211.80225.24316,1.30518.24316.53955,0,.99805-.08984,1.37646-.27051s.6665-.42383.86426-.73047.29688-.64941.29688-1.02832c0-.33008-.06738-.60742-.20264-.83398-.13477-.22559-.30566-.41211-.5127-.55664Z"/>
    <path d="M76.521,44.42802c-.21973-.2041-.46289-.35254-.73047-.44336-.26758-.0918-.53857-.1377-.81299-.1377-.47559,0-.89111.11621-1.24658.34766-.35547.23242-.63184.55469-.82959.96777-.19775.41211-.29688.88867-.29688,1.42773,0,.54004.09912,1.0127.29688,1.41797.19775.40625.47998.72168.84717.94629.3667.22559.80371.33789,1.31152.33789.35645,0,.67773-.05469.96338-.16602.28613-.11035.52588-.2666.72021-.4668.19434-.19922.33252-.43262.41504-.69727l-.78174-.21973c-.06885.18262-.16602.33594-.2915.45801-.12598.12207-.2749.21387-.44775.27441-.17236.06055-.36523.09082-.57764.09082-.32715,0-.61377-.07129-.86084-.21484-.24707-.14258-.43945-.35156-.57764-.62695-.12488-.24805-.18494-.55328-.19727-.90039h3.81689v-.34277c0-.49121-.06543-.90527-.1958-1.24121s-.30518-.60645-.52441-.81152ZM73.4278,46.12431c.01556-.24335.06714-.4765.17474-.69336.12549-.25293.30566-.45996.54004-.61816.23438-.15918.5127-.23828.83496-.23828.29297,0,.54688.06738.76318.20215.21582.13477.38281.31836.50049.55176s.17676.49805.17676.7959h-2.99017Z"/>
    <path d="M82.04834,44.42802c-.21973-.2041-.46289-.35254-.73047-.44336-.26758-.0918-.53857-.1377-.81299-.1377-.47559,0-.89111.11621-1.24658.34766-.35547.23242-.63184.55469-.82959.96777-.19775.41211-.29688.88867-.29688,1.42773,0,.54004.09912,1.0127.29688,1.41797.19775.40625.47998.72168.84717.94629.3667.22559.80371.33789,1.31152.33789.35645,0,.67773-.05469.96338-.16602.28613-.11035.52588-.2666.72021-.4668.19434-.19922.33252-.43262.41504-.69727l-.78174-.21973c-.06885.18262-.16602.33594-.2915.45801-.12598.12207-.2749.21387-.44775.27441-.17236.06055-.36523.09082-.57764.09082-.32715,0-.61377-.07129-.86084-.21484-.24707-.14258-.43945-.35156-.57764-.62695-.12488-.24805-.18494-.55328-.19727-.90039h3.81689v-.34277c0-.49121-.06543-.90527-.1958-1.24121s-.30518-.60645-.52441-.81152ZM78.95514,46.12431c.01556-.24335.06714-.4765.17474-.69336.12549-.25293.30566-.45996.54004-.61816.23438-.15918.5127-.23828.83496-.23828.29297,0,.54688.06738.76318.20215.21582.13477.38281.31836.50049.55176s.17676.49805.17676.7959h-2.99017Z"/>
    <polygon points="91.31299 47.93486 91.2583 47.93486 90.14697 43.91532 89.2832 43.91532 88.1582 47.94853 88.10352 47.94853 86.96484 43.91532 86.11426 43.91532 87.71924 49.1829 88.51465 49.1829 89.66699 45.13603 89.74951 45.13603 90.90137 49.1829 91.69727 49.1829 93.30225 43.91532 92.45166 43.91532 91.31299 47.93486"/>
    <path d="M97.64648,44.06181c-.27002-.14355-.58447-.21484-.94336-.21484-.41357,0-.74463.08105-.99268.24219s-.43359.37695-.55713.64941h-.06885v-2.5791h-.80908v7.02344h.80908v-3.16895c0-.30566.06006-.56641.18018-.78125s.28467-.37891.49365-.49023c.20947-.1123.44678-.16797.71191-.16797.38184,0,.68066.11426.89648.34375.21631.23047.32422.55469.32422.97266v3.29199h.80908v-3.34668c0-.45312-.07471-.82617-.22461-1.12012-.14941-.29395-.35938-.51172-.62891-.6543Z"/>
    <path d="M103.12695,44.15263c-.20703-.12402-.42041-.20605-.64111-.24512-.2207-.04004-.41553-.06055-.58447-.06055-.26562,0-.53467.03613-.80762.1084-.27344.07129-.5249.19727-.75439.37695-.22998.17969-.41357.42871-.55078.74902l.76855.27441c.08887-.19238.24316-.37207.46289-.54199.21924-.16895.52197-.25391.90869-.25391.37256,0,.65088.09375.83496.28125s.27588.45117.27588.78906v.02734c0,.13086-.04639.22168-.13867.27441-.09277.05273-.23926.08984-.43896.11133-.2002.02148-.45996.05371-.78027.09473-.24463.03223-.4873.07422-.72852.12793s-.46143.13477-.66016.24219c-.19922.10742-.35791.25586-.47656.44434-.11914.18848-.17871.43359-.17871.73535,0,.34277.08008.63477.24023.87598s.37598.42578.64795.55273c.27197.12598.5752.18945.90869.18945.30664,0,.56592-.04492.77881-.13672.2124-.0918.38281-.20215.51074-.33301.12793-.12988.21973-.25195.27441-.36621h.04102v.71289h.80957v-3.4707c0-.41797-.06885-.75195-.20605-1.00098s-.30908-.43555-.51611-.55859ZM103.03955,47.27665c0,.21875-.05664.42871-.16943.62695-.11328.19922-.28027.36133-.50098.4873s-.49072.18848-.81104.18848c-.32227,0-.58789-.07129-.79736-.21484-.20898-.14258-.31348-.35449-.31348-.63574,0-.20605.05518-.36816.16602-.48828s.25732-.21094.43896-.27148c.18213-.06055.37793-.10449.58838-.13184.08691-.01172.20068-.02539.34131-.04297.14062-.0166.28564-.03711.43555-.06152.14941-.02441.28223-.05273.39746-.08594.11572-.0332.19043-.07031.22461-.11133v.74121Z"/>
    <path d="M107.31885,48.45439c-.05713.00977-.13037.01562-.21924.01562-.11914,0-.23193-.01953-.33789-.05664-.10645-.03809-.19336-.11328-.26074-.22656s-.10107-.28418-.10107-.5127v-3.07227h1.12451v-.68652h-1.12451v-1.26172h-.80957v1.26172h-.79541v.68652h.79541v3.29199c0,.30566.07178.55957.21436.76074.14307.20117.32373.35156.54199.44922.21826.09863.44189.14746.67041.14746.15088,0,.27539-.01074.37354-.03223.09863-.02148.17529-.04297.22998-.06348l-.16455-.72754c-.03418.00684-.08008.01562-.13721.02637Z"/>
    <path d="M109.63623,42.15946h-.76807v.63184c0,.25293-.05322.49121-.15967.71484-.10645.22266-.23145.43652-.37549.64258l.43896.35645c.18262-.14648.33887-.31836.46826-.51562.12891-.19824.22705-.40234.29492-.61426.06738-.21094.10107-.41113.10107-.59863v-.61719Z"/>
    <path d="M112.29688,46.28837l-.78174-.19141c-.31104-.07812-.53955-.1748-.68604-.29199-.146-.11621-.21924-.27539-.21924-.47656,0-.22656.10693-.41309.3208-.56055.21338-.14746.48145-.22168.8042-.22168.23535,0,.42822.03809.5791.11328.15088.07617.27051.1709.3584.28711.08838.11523.15479.2334.20068.35449l.72705-.20605c-.12549-.375-.33789-.67676-.63623-.90527s-.70801-.34277-1.229-.34277c-.37061,0-.70166.06543-.99316.19531-.2915.13086-.521.30957-.68896.53906-.16797.22852-.25195.49121-.25195.78809,0,.36328.1123.66602.3374.90723s.5791.41895,1.06152.5332l.87793.20605c.26514.06152.46191.1543.58984.2793s.19189.27832.19189.46094c0,.22656-.11133.41992-.33447.58105-.22266.16113-.52295.24219-.8999.24219-.33154,0-.59961-.07129-.8042-.21289s-.34375-.35449-.4165-.6377l-.76855.19238c.09375.44824.31689.78809.66895,1.02148s.79688.34961,1.33398.34961c.40918,0,.76807-.06836,1.07666-.20508.30859-.1377.54932-.3252.72168-.5625.17285-.23828.25928-.50781.25928-.80957,0-.36816-.11572-.66895-.34668-.90332s-.58154-.40918-1.05273-.52344Z"/>
    <rect x="117.43945" y="43.91532" width=".80859" height="5.26758"/>
    <path d="M117.85059,41.94071c-.15723,0-.29297.05371-.40625.16113s-.16992.23633-.16992.38672c0,.15137.05664.28027.16992.3877s.24902.16113.40625.16113c.1582,0,.29297-.05371.40625-.16113s.16992-.23633.16992-.3877c0-.15039-.05664-.2793-.16992-.38672s-.24805-.16113-.40625-.16113Z"/>
    <path d="M122.95605,44.06474c-.2666-.14551-.5791-.21777-.93555-.21777-.39844,0-.72266.08203-.97461.24512-.25098.16406-.43848.37891-.56152.64648h-.06934v-.82324h-.78125v5.26758h.80859v-3.16895c0-.30566.05859-.56641.17578-.78125.11621-.21484.27539-.37891.47754-.49023.20312-.1123.43262-.16797.69141-.16797.375,0,.66992.11523.88477.34766s.32227.55469.32227.96875v3.29199h.80957v-3.34668c0-.44824-.07422-.81934-.22266-1.11328-.14941-.29395-.35742-.5127-.625-.6582Z"/>
    <path d="M129.78223,48.11259h-.05469l-1.4541-4.19727h-.87793l1.94824,5.29492-.15137.41113c-.14355.39355-.31445.62988-.51074.70898-.19629.07812-.44238.08008-.7373.00488l-.20508.71289c.04102.02051.11523.04199.22266.06348s.22949.0332.36621.0332c.24512,0,.46484-.04395.66016-.13086.19629-.08691.36816-.21875.5166-.39551.14844-.17773.27344-.40039.37402-.66699l2.24219-6.02246-.88477-.01367-1.4541,4.19727Z"/>
    <path d="M136.29199,44.18681c-.35742-.22656-.77441-.33984-1.25-.33984s-.8916.11328-1.25.33984c-.35742.22559-.63672.54395-.83594.95312-.2002.40918-.30078.8877-.30078,1.43652,0,.54395.10059,1.01953.30078,1.42676.19922.40723.47852.72363.83594.9502.3584.22559.77441.33887,1.25.33887s.89258-.11328,1.25-.33887c.3584-.22656.63672-.54297.83691-.9502s.2998-.88281.2998-1.42676c0-.54883-.09961-1.02734-.2998-1.43652s-.47852-.72754-.83691-.95312ZM136.45215,47.5579c-.1123.30176-.28516.54492-.51855.72949-.23242.18555-.53027.27832-.8916.27832-.36035,0-.6582-.09277-.8916-.27832-.23242-.18457-.40527-.42773-.51758-.72949s-.16797-.62891-.16797-.98145c0-.35156.05566-.67969.16797-.98438.1123-.30371.28516-.5498.51758-.7373.2334-.18652.53125-.28027.8916-.28027.36133,0,.65918.09375.8916.28027.2334.1875.40625.43359.51855.7373.11133.30469.16797.63281.16797.98438,0,.35254-.05664.67969-.16797.98145Z"/>
    <path d="M141.88672,47.02958c0,.3291-.07129.59961-.21484.8125-.14258.21289-.31836.37012-.52734.47363-.20996.10254-.41504.1543-.61621.1543-.33594,0-.61133-.11426-.82812-.34375-.21582-.22852-.32422-.53418-.32422-.91895v-3.29199h-.80859v3.34766c0,.44727.07324.81836.21875,1.1123.14648.29395.34766.51367.60449.6582.25586.14551.54785.21777.87695.21777.39844,0,.72754-.09277.98828-.2793s.45215-.41309.57617-.68066h.05469v.8916h.80957v-5.26758h-.80957v3.11426Z"/>
    <path d="M146.28906,43.83329c-.31543,0-.59863.08105-.85059.24316-.25098.16309-.4248.37402-.52051.63477h-.05566v-.7959h-.78125v5.26758h.80859v-3.33301c0-.23828.05859-.4502.17383-.63672.11523-.18555.27344-.33203.47266-.43848.2002-.10645.42871-.15918.68457-.15918.10742,0,.20996.00684.30664.02148.09766.01562.16016.02637.1875.0332v-.82324c-.0459-.00488-.11328-.00781-.20312-.00977-.08887-.00293-.16309-.00391-.22266-.00391Z"/>
    <polygon points="154.98438 47.93486 154.92969 47.93486 153.81836 43.91532 152.95508 43.91532 151.83008 47.94853 151.77539 47.94853 150.63672 43.91532 149.78613 43.91532 151.39062 49.1829 152.18652 49.1829 153.33887 45.13603 153.4209 45.13603 154.57227 49.1829 155.36914 49.1829 156.97266 43.91532 156.12305 43.91532 154.98438 47.93486"/>
    <path d="M161.18945,44.15263c-.20703-.12402-.4209-.20605-.6416-.24512-.2207-.04004-.41602-.06055-.58496-.06055-.26465,0-.53418.03613-.80762.1084-.27246.07129-.52441.19727-.75391.37695-.23047.17969-.41309.42871-.55078.74902l.76855.27441c.08887-.19238.24316-.37207.46289-.54199.21973-.16895.52246-.25391.9082-.25391.37305,0,.65137.09375.83496.28125.18457.1875.27637.45117.27637.78906v.02734c0,.13086-.0459.22168-.13867.27441s-.23926.08984-.43945.11133c-.19922.02148-.45996.05371-.7793.09473-.24512.03223-.48828.07422-.72949.12793s-.46094.13477-.66016.24219c-.19824.10742-.35742.25586-.47656.44434-.11816.18848-.17773.43359-.17773.73535,0,.34277.08008.63477.23926.87598.16016.24121.37695.42578.64844.55273.27246.12598.5752.18945.90918.18945.30566,0,.56543-.04492.77832-.13672s.38281-.20215.51074-.33301c.12793-.12988.21973-.25195.27441-.36621h.04102v.71289h.80957v-3.4707c0-.41797-.06836-.75195-.20605-1.00098-.13672-.24902-.30957-.43555-.51562-.55859ZM161.10156,47.27665c0,.21875-.05664.42871-.16992.62695-.11328.19922-.28027.36133-.5.4873-.2207.12598-.49121.18848-.81152.18848-.32227,0-.58789-.07129-.79688-.21484-.20996-.14258-.31445-.35449-.31445-.63574,0-.20605.05566-.36816.16699-.48828.11035-.12012.25684-.21094.43848-.27148s.37793-.10449.58789-.13184c.08691-.01172.20117-.02539.3418-.04297.14062-.0166.28516-.03711.43555-.06152.14941-.02441.28223-.05273.39746-.08594s.19043-.07031.22461-.11133v.74121Z"/>
    <rect x="163.29492" y="42.15946" width=".80957" height="7.02344"/>
    <rect x="165.48926" y="42.15946" width=".80957" height="7.02344"/>
    <path d="M171.35352,44.42802c-.21973-.2041-.46289-.35254-.73047-.44336-.26758-.0918-.53809-.1377-.8125-.1377-.47559,0-.8916.11621-1.24707.34766-.35547.23242-.63184.55469-.83008.96777-.19727.41211-.2959.88867-.2959,1.42773,0,.54004.09863,1.0127.2959,1.41797.19824.40625.48047.72168.84766.94629.36621.22559.80371.33789,1.31152.33789.35645,0,.67773-.05469.96387-.16602.28516-.11035.52539-.2666.71973-.4668.19434-.19922.33301-.43262.41504-.69727l-.78223-.21973c-.06836.18262-.16504.33594-.29102.45801s-.27539.21387-.44727.27441c-.17285.06055-.36523.09082-.57812.09082-.32715,0-.61426-.07129-.86035-.21484-.24707-.14258-.44043-.35156-.57812-.62695-.12488-.24805-.18524-.55328-.19769-.90039h3.81683v-.34277c0-.49121-.06445-.90527-.19531-1.24121-.12988-.33594-.30469-.60645-.52441-.81152ZM168.25995,46.12431c.01581-.24335.06799-.4765.1756-.69336.125-.25293.30566-.45996.54004-.61816.23438-.15918.5127-.23828.83496-.23828.29199,0,.54688.06738.7627.20215s.38281.31836.50098.55176c.11719.2334.17578.49805.17578.7959h-2.99005Z"/>
    <path d="M175.29688,48.45439c-.05762.00977-.13086.01562-.21973.01562-.11914,0-.23145-.01953-.33789-.05664-.10645-.03809-.19336-.11328-.26074-.22656s-.10156-.28418-.10156-.5127v-3.07227h1.125v-.68652h-1.125v-1.26172h-.80859v1.26172h-.7959v.68652h.7959v3.29199c0,.30566.07129.55957.21387.76074s.32324.35156.54199.44922c.21875.09863.44141.14746.66992.14746.15137,0,.27637-.01074.37402-.03223.09863-.02148.1748-.04297.23047-.06348l-.16504-.72754c-.03418.00684-.08008.01562-.13672.02637Z"/>
    <path d="M177.65137,48.18486c-.12109-.12109-.26562-.18164-.43555-.18164-.16895,0-.31348.06055-.43457.18164-.12207.12109-.18262.2666-.18262.43555s.06055.31445.18262.43555c.12109.12109.26562.18164.43457.18164.11523,0,.21777-.02832.31055-.08398s.16699-.13086.22363-.22461c.05566-.09375.08398-.19629.08398-.30859,0-.16895-.06152-.31445-.18262-.43555Z"/>
  </g>
</svg>